<?xml version="1.0" encoding="UTF-8"?>
<!DOCTYPE svg PUBLIC "-//W3C//DTD SVG 1.1//EN" "http://www.w3.org/Graphics/SVG/1.1/DTD/svg11.dtd">
<svg xmlns="http://www.w3.org/2000/svg" version="1.1" width="1024px" height="1024px" style="shape-rendering:geometricPrecision; text-rendering:geometricPrecision; image-rendering:optimizeQuality; fill-rule:evenodd; clip-rule:evenodd" xmlns:xlink="http://www.w3.org/1999/xlink">
<g><path style="opacity:0.294" fill="#6d8171" d="M -0.5,-0.5 C 340.833,-0.5 682.167,-0.5 1023.5,-0.5C 1023.5,-0.166667 1023.5,0.166667 1023.5,0.5C 682.5,0.5 341.5,0.5 0.5,0.5C 0.5,218.833 0.5,437.167 0.5,655.5C 0.166667,655.5 -0.166667,655.5 -0.5,655.5C -0.5,436.833 -0.5,218.167 -0.5,-0.5 Z"/></g>
<g><path style="opacity:0.004" fill="#feff00" d="M 1023.5,1.5 C 1023.5,1.83333 1023.5,2.16667 1023.5,2.5C 1022.83,2.01865 1022.83,1.68532 1023.5,1.5 Z"/></g>
<g><path style="opacity:0.004" fill="#00ff00" d="M 1023.5,10.5 C 1023.5,10.8333 1023.5,11.1667 1023.5,11.5C 1022.83,11.0187 1022.83,10.6853 1023.5,10.5 Z"/></g>
<g><path style="opacity:0.008" fill="#008382" d="M 510.5,71.5 C 511.833,72.1667 511.833,72.1667 510.5,71.5 Z"/></g>
<g><path style="opacity:0.008" fill="#008382" d="M 512.5,71.5 C 513.833,72.1667 513.833,72.1667 512.5,71.5 Z"/></g>
<g><path style="opacity:0.004" fill="#000000" d="M 515.5,71.5 C 516.833,72.1667 516.833,72.1667 515.5,71.5 Z"/></g>
<g><path style="opacity:0.999" fill="#006f48" d="M 459.5,75.5 C 460.568,74.5655 461.901,74.2322 463.5,74.5C 564.599,68.4103 623.765,115.41 641,215.5C 643.711,237.08 645.211,258.747 645.5,280.5C 645.385,300.114 635.385,309.947 615.5,310C 604.967,311.356 594.967,309.689 585.5,305C 578.357,299.255 574.857,291.755 575,282.5C 574.809,284.708 574.309,286.708 573.5,288.5C 573.5,285.5 573.5,282.5 573.5,279.5C 574.444,256.389 572.277,233.389 567,210.5C 550.259,154.104 513.759,134.604 457.5,152C 448.319,156.086 439.985,161.419 432.5,168C 432.728,168.399 433.062,168.565 433.5,168.5C 432.738,170.262 431.404,171.262 429.5,171.5C 425.933,173.557 422.766,176.223 420,179.5C 419.308,180.437 419.475,181.103 420.5,181.5C 420.5,181.833 420.5,182.167 420.5,182.5C 419.833,182.833 419.167,183.167 418.5,183.5C 418.565,183.062 418.399,182.728 418,182.5C 410.651,190.535 404.818,199.535 400.5,209.5C 394.691,219.47 390.191,230.137 387,241.5C 382.806,249.183 376.306,253.183 367.5,253.5C 349.854,249.717 332.021,247.384 314,246.5C 287.708,246.702 265.042,255.702 246,273.5C 245.626,274.416 245.126,275.25 244.5,276C 244.728,276.399 245.062,276.565 245.5,276.5C 245.167,277.5 244.5,278.167 243.5,278.5C 243.565,278.062 243.399,277.728 243,277.5C 233.625,288.926 227.291,301.926 224,316.5C 223.211,318.712 223.378,320.712 224.5,322.5C 224.5,324.833 224.5,327.167 224.5,329.5C 223.698,328.048 223.198,326.382 223,324.5C 221.298,338.696 223.298,352.363 229,365.5C 231.959,376.962 228.792,386.129 219.5,393C 200.242,400.957 182.242,410.957 165.5,423C 138.803,445.874 125.469,475.04 125.5,510.5C 125.476,554.233 144.143,587.066 181.5,609C 190.748,613.527 200.082,617.86 209.5,622C 214.612,625.935 217.279,631.102 217.5,637.5C 210.833,670.493 215.333,701.826 231,731.5C 251.057,762.879 279.557,779.213 316.5,780.5C 329.5,781.833 342.5,781.833 355.5,780.5C 363.994,780.932 372.661,781.099 381.5,781C 391.331,781.996 397.831,787.163 401,796.5C 405.852,823.38 418.352,845.88 438.5,864C 461.568,878.847 486.568,883.18 513.5,877C 545.369,866.441 562.202,844.275 564,810.5C 564.83,784.663 564.663,758.997 563.5,733.5C 562.167,733.167 562.167,732.833 563.5,732.5C 564.499,637.668 564.833,542.668 564.5,447.5C 558.408,412.618 572.908,394.618 608,393.5C 621.58,392.135 632.913,396.468 642,406.5C 644.074,409.975 645.574,413.642 646.5,417.5C 645.833,477.832 645.5,538.332 645.5,599C 645.5,659.837 646.167,720.337 647.5,780.5C 655.214,780.705 662.881,780.205 670.5,779C 669.263,778.768 668.263,778.268 667.5,777.5C 668.833,777.5 670.167,777.5 671.5,777.5C 685.44,777.276 699.107,774.609 712.5,769.5C 713.666,659.667 713.833,549.667 713,439.5C 712.817,436.635 712.317,433.969 711.5,431.5C 711.333,396.498 711.5,361.498 712,326.5C 713.428,319.153 717.595,313.986 724.5,311C 735.785,309.783 747.118,309.116 758.5,309C 757.263,308.768 756.263,308.268 755.5,307.5C 758.206,307.575 760.873,307.908 763.5,308.5C 772.598,309.815 781.598,309.815 790.5,308.5C 791.791,308.263 792.791,308.596 793.5,309.5C 792.761,309.369 792.094,309.536 791.5,310C 800.214,312.713 805.381,318.546 807,327.5C 807.167,459.667 807.667,591.667 808.5,723.5C 808.56,724.043 808.893,724.376 809.5,724.5C 841.267,705.683 860.767,678.016 868,641.5C 869.017,635.182 869.85,628.848 870.5,622.5C 870.5,500.167 870.5,377.833 870.5,255.5C 871.792,244.804 877.792,238.304 888.5,236C 910.5,235.333 932.5,235.333 954.5,236C 963.054,237.555 968.888,242.388 972,250.5C 972.687,368.178 971.854,485.845 969.5,603.5C 969.839,663.664 950.339,716.331 911,761.5C 901.934,770.392 893.434,779.059 885.5,787.5C 885.167,788.167 884.833,788.833 884.5,789.5C 884.167,789.5 883.833,789.5 883.5,789.5C 883.103,788.475 882.437,788.308 881.5,789C 846.802,815.853 808.469,836.186 766.5,850C 767.094,850.464 767.761,850.631 768.5,850.5C 767.791,851.404 766.791,851.737 765.5,851.5C 765.083,850.876 764.416,850.543 763.5,850.5C 752.463,853.273 741.463,856.106 730.5,859C 731.094,859.464 731.761,859.631 732.5,859.5C 731.791,860.404 730.791,860.737 729.5,860.5C 723.963,860.568 718.297,860.568 712.5,860.5C 704.57,862.644 696.57,864.477 688.5,866C 689.793,866.49 691.127,866.657 692.5,866.5C 691.081,867.451 689.415,867.784 687.5,867.5C 686.378,866.844 685.045,866.511 683.5,866.5C 668.85,867.866 654.184,869.032 639.5,870C 640.416,870.278 641.082,870.778 641.5,871.5C 640.833,871.833 640.167,872.167 639.5,872.5C 626.987,902.199 605.654,924.365 575.5,939C 520.379,962.544 465.379,962.211 410.5,938C 377.403,920.464 355.403,893.797 344.5,858C 330.66,857.173 316.994,857.339 303.5,858.5C 301.833,858.5 300.167,858.5 298.5,858.5C 299.263,857.732 300.263,857.232 301.5,857C 241.164,850.94 194.998,822.44 163,771.5C 152.738,752.713 146.071,732.713 143,711.5C 142.517,712.448 142.351,713.448 142.5,714.5C 141.291,710.382 140.624,706.049 140.5,701.5C 141.658,692.343 141.824,683.009 141,673.5C 87.0702,639.016 57.0702,589.682 51,525.5C 50.5045,527.473 50.3379,529.473 50.5,531.5C 49.5269,529.052 49.1936,526.385 49.5,523.5C 46.299,439.556 81.299,377.223 154.5,336.5C 152.349,276.3 176.015,229.467 225.5,196C 262.124,175.004 301.457,167.338 343.5,173C 361.416,128.42 393.082,98.0863 438.5,82C 437.906,81.5357 437.239,81.369 436.5,81.5C 437.209,80.596 438.209,80.2627 439.5,80.5C 439.735,81.0967 440.235,81.4301 441,81.5C 448.065,79.2754 455.232,77.4421 462.5,76C 461.552,75.5172 460.552,75.3505 459.5,75.5 Z"/></g>
<g><path style="opacity:0.859" fill="#072518" d="M 459.5,75.5 C 460.552,75.3505 461.552,75.5172 462.5,76C 455.232,77.4421 448.065,79.2754 441,81.5C 440.235,81.4301 439.735,81.0967 439.5,80.5C 445.913,77.8968 452.58,76.2301 459.5,75.5 Z"/></g>
<g><path style="opacity:0.004" fill="#000000" d="M 431.5,80.5 C 432.833,81.1667 432.833,81.1667 431.5,80.5 Z"/></g>
<g><path style="opacity:0.012" fill="#4a4b4a" d="M 417.5,88.5 C 416.833,87.1667 416.833,87.1667 417.5,88.5 Z"/></g>
<g><path style="opacity:0.004" fill="#000000" d="M 561.5,88.5 C 561.897,87.475 562.563,87.3083 563.5,88C 562.906,88.4643 562.239,88.631 561.5,88.5 Z"/></g>
<g><path style="opacity:0.004" fill="#000000" d="M 370.5,121.5 C 371.833,122.167 371.833,122.167 370.5,121.5 Z"/></g>
<g><path style="opacity:0.004" fill="#000000" d="M 359.5,130.5 C 360.833,131.167 360.833,131.167 359.5,130.5 Z"/></g>
<g><path style="opacity:0.024" fill="#008341" d="M 360.5,136.5 C 359.833,135.167 359.833,135.167 360.5,136.5 Z"/></g>
<g><path style="opacity:1" fill="#092719" d="M 436.5,81.5 C 437.239,81.369 437.906,81.5357 438.5,82C 393.082,98.0863 361.416,128.42 343.5,173C 301.457,167.338 262.124,175.004 225.5,196C 176.015,229.467 152.349,276.3 154.5,336.5C 81.299,377.223 46.299,439.556 49.5,523.5C 49.5,521.5 49.5,519.5 49.5,517.5C 49.5,510.5 49.5,503.5 49.5,496.5C 50.9489,442.613 71.9489,398.28 112.5,363.5C 118.691,358.248 125.024,353.248 131.5,348.5C 136.132,345.857 140.465,342.857 144.5,339.5C 147.758,338.092 150.924,336.426 154,334.5C 151.956,306.886 156.79,280.553 168.5,255.5C 174.745,244.685 181.745,234.351 189.5,224.5C 194.349,219.264 199.349,214.264 204.5,209.5C 207.729,207.058 210.729,204.392 213.5,201.5C 223.038,195.566 232.704,189.9 242.5,184.5C 273.8,171.312 306.3,166.978 340,171.5C 340.833,171.167 341.667,170.833 342.5,170.5C 347.253,158.438 353.253,147.105 360.5,136.5C 375.86,116.137 394.86,100.137 417.5,88.5C 423.711,85.9835 430.045,83.6501 436.5,81.5 Z"/></g>
<g><path style="opacity:0.004" fill="#000000" d="M 355.5,140.5 C 356.833,141.167 356.833,141.167 355.5,140.5 Z"/></g>
<g><path style="opacity:0.004" fill="#000000" d="M 620.5,144.5 C 621.833,145.167 621.833,145.167 620.5,144.5 Z"/></g>
<g><path style="opacity:0.004" fill="#000000" d="M 351.5,146.5 C 352.833,147.167 352.833,147.167 351.5,146.5 Z"/></g>
<g><path style="opacity:1" fill="#092919" d="M 573.5,279.5 C 572.843,267.826 572.009,256.159 571,244.5C 570.103,234.192 568.27,224.192 565.5,214.5C 565.258,210.521 564.258,206.854 562.5,203.5C 561.571,196.813 558.904,190.979 554.5,186C 554.833,185.667 555.167,185.333 555.5,185C 552.637,180.652 549.637,176.485 546.5,172.5C 542.374,165.704 536.707,160.704 529.5,157.5C 526.992,155.076 523.992,153.41 520.5,152.5C 488.656,141.753 459.656,147.087 433.5,168.5C 433.062,168.565 432.728,168.399 432.5,168C 439.985,161.419 448.319,156.086 457.5,152C 513.759,134.604 550.259,154.104 567,210.5C 572.277,233.389 574.444,256.389 573.5,279.5 Z"/></g>
<g><path style="opacity:0.012" fill="#0e2828" d="M 506.5,150.5 C 507.251,149.427 508.251,149.26 509.5,150C 508.552,150.483 507.552,150.649 506.5,150.5 Z"/></g>
<g><path style="opacity:0.008" fill="#008382" d="M 480.5,148.5 C 481.833,149.167 481.833,149.167 480.5,148.5 Z"/></g>
<g><path style="opacity:0.008" fill="#008382" d="M 512.5,150.5 C 513.833,151.167 513.833,151.167 512.5,150.5 Z"/></g>
<g><path style="opacity:0.004" fill="#000000" d="M 343.5,151.5 C 344.833,152.167 344.833,152.167 343.5,151.5 Z"/></g>
<g><path style="opacity:0.004" fill="#000000" d="M 520.5,152.5 C 519.833,153.167 519.833,153.167 520.5,152.5 Z"/></g>
<g><path style="opacity:0.004" fill="#000000" d="M 521.5,155.5 C 522.833,156.167 522.833,156.167 521.5,155.5 Z"/></g>
<g><path style="opacity:0.004" fill="#000000" d="M 524.5,155.5 C 525.833,156.167 525.833,156.167 524.5,155.5 Z"/></g>
<g><path style="opacity:0.004" fill="#000000" d="M 451.5,157.5 C 452.833,158.167 452.833,158.167 451.5,157.5 Z"/></g>
<g><path style="opacity:0.004" fill="#000000" d="M 529.5,157.5 C 528.833,158.167 528.833,158.167 529.5,157.5 Z"/></g>
<g><path style="opacity:0.008" fill="#008382" d="M 343.5,162.5 C 344.833,163.167 344.833,163.167 343.5,162.5 Z"/></g>
<g><path style="opacity:0.004" fill="#000000" d="M 629.5,162.5 C 630.833,163.167 630.833,163.167 629.5,162.5 Z"/></g>
<g><path style="opacity:0.004" fill="#000000" d="M 303.5,167.5 C 304.833,168.167 304.833,168.167 303.5,167.5 Z"/></g>
<g><path style="opacity:0.008" fill="#155655" d="M 309.5,168.5 C 309.897,167.475 310.563,167.308 311.5,168C 310.906,168.464 310.239,168.631 309.5,168.5 Z"/></g>
<g><path style="opacity:0.004" fill="#000000" d="M 312.5,167.5 C 313.833,168.167 313.833,168.167 312.5,167.5 Z"/></g>
<g><path style="opacity:0.008" fill="#008382" d="M 319.5,168.5 C 319.897,167.475 320.563,167.308 321.5,168C 320.906,168.464 320.239,168.631 319.5,168.5 Z"/></g>
<g><path style="opacity:0.004" fill="#000000" d="M 334.5,168.5 C 333.833,167.167 333.833,167.167 334.5,168.5 Z"/></g>
<g><path style="opacity:0.008" fill="#155655" d="M 297.5,169.5 C 297.897,168.475 298.563,168.308 299.5,169C 298.906,169.464 298.239,169.631 297.5,169.5 Z"/></g>
<g><path style="opacity:0.008" fill="#155655" d="M 329.5,169.5 C 329.897,168.475 330.563,168.308 331.5,169C 330.906,169.464 330.239,169.631 329.5,169.5 Z"/></g>
<g><path style="opacity:0.004" fill="#000000" d="M 333.5,168.5 C 332.833,169.167 332.833,169.167 333.5,168.5 Z"/></g>
<g><path style="opacity:0.012" fill="#004d4c" d="M 334.5,168.5 C 335.833,169.167 335.833,169.167 334.5,168.5 Z"/></g>
<g><path style="opacity:0.004" fill="#132c2c" d="M 288.5,170.5 C 288.897,169.475 289.563,169.308 290.5,170C 289.906,170.464 289.239,170.631 288.5,170.5 Z"/></g>
<g><path style="opacity:0.004" fill="#000000" d="M 340.5,169.5 C 341.833,170.167 341.833,170.167 340.5,169.5 Z"/></g>
<g><path style="opacity:0.004" fill="#000000" d="M 281.5,170.5 C 282.833,171.167 282.833,171.167 281.5,170.5 Z"/></g>
<g><path style="opacity:0.012" fill="#4a4b4a" d="M 543.5,170.5 C 544.833,171.167 544.833,171.167 543.5,170.5 Z"/></g>
<g><path style="opacity:0.008" fill="#008382" d="M 546.5,172.5 C 545.833,173.167 545.833,173.167 546.5,172.5 Z"/></g>
<g><path style="opacity:0.004" fill="#000000" d="M 544.5,174.5 C 545.833,175.167 545.833,175.167 544.5,174.5 Z"/></g>
<g><path style="opacity:0.008" fill="#008382" d="M 255.5,175.5 C 256.833,176.167 256.833,176.167 255.5,175.5 Z"/></g>
<g><path style="opacity:0.008" fill="#008382" d="M 261.5,175.5 C 262.833,176.167 262.833,176.167 261.5,175.5 Z"/></g>
<g><path style="opacity:0.859" fill="#031c10" d="M 429.5,171.5 C 426.471,174.859 423.471,178.192 420.5,181.5C 419.475,181.103 419.308,180.437 420,179.5C 422.766,176.223 425.933,173.557 429.5,171.5 Z"/></g>
<g><path style="opacity:0.008" fill="#008382" d="M 259.5,176.5 C 260.833,177.167 260.833,177.167 259.5,176.5 Z"/></g>
<g><path style="opacity:0.012" fill="#004d4c" d="M 634.5,176.5 C 635.833,177.167 635.833,177.167 634.5,176.5 Z"/></g>
<g><path style="opacity:0.004" fill="#132c2c" d="M 255.5,178.5 C 255.897,177.475 256.563,177.308 257.5,178C 256.906,178.464 256.239,178.631 255.5,178.5 Z"/></g>
<g><path style="opacity:0.004" fill="#000000" d="M 635.5,178.5 C 636.833,179.167 636.833,179.167 635.5,178.5 Z"/></g>
<g><path style="opacity:0.004" fill="#000000" d="M 420.5,182.5 C 421.833,183.167 421.833,183.167 420.5,182.5 Z"/></g>
<g><path style="opacity:0.012" fill="#005e5e" d="M 242.5,184.5 C 241.761,184.631 241.094,184.464 240.5,184C 241.437,183.308 242.103,183.475 242.5,184.5 Z"/></g>
<g><path style="opacity:0.004" fill="#000000" d="M 552.5,183.5 C 553.833,184.167 553.833,184.167 552.5,183.5 Z"/></g>
<g><path style="opacity:0.004" fill="#000000" d="M 413.5,191.5 C 414.833,192.167 414.833,192.167 413.5,191.5 Z"/></g>
<g><path style="opacity:0.012" fill="#004d4c" d="M 213.5,201.5 C 212.833,200.167 212.833,200.167 213.5,201.5 Z"/></g>
<g><path style="opacity:0.89" fill="#082516" d="M 418.5,183.5 C 412.077,191.914 406.077,200.581 400.5,209.5C 404.818,199.535 410.651,190.535 418,182.5C 418.399,182.728 418.565,183.062 418.5,183.5 Z"/></g>
<g><path style="opacity:0.004" fill="#000000" d="M 641.5,202.5 C 642.833,203.167 642.833,203.167 641.5,202.5 Z"/></g>
<g><path style="opacity:0.996" fill="#092a1b" d="M 561.5,88.5 C 597.149,108.822 621.483,138.489 634.5,177.5C 644.95,216.575 648.617,256.241 645.5,296.5C 640.216,304.824 632.549,309.658 622.5,311C 609.349,313.252 596.683,311.752 584.5,306.5C 578.825,301.832 575.158,295.832 573.5,288.5C 574.309,286.708 574.809,284.708 575,282.5C 574.857,291.755 578.357,299.255 585.5,305C 594.967,309.689 604.967,311.356 615.5,310C 635.385,309.947 645.385,300.114 645.5,280.5C 645.211,258.747 643.711,237.08 641,215.5C 623.765,115.41 564.599,68.4103 463.5,74.5C 497.478,68.5919 530.144,73.2586 561.5,88.5 Z"/></g>
<g><path style="opacity:0.008" fill="#155655" d="M 562.5,203.5 C 562.631,204.239 562.464,204.906 562,205.5C 561.308,204.563 561.475,203.897 562.5,203.5 Z"/></g>
<g><path style="opacity:0.004" fill="#000000" d="M 199.5,208.5 C 200.525,208.897 200.692,209.563 200,210.5C 199.536,209.906 199.369,209.239 199.5,208.5 Z"/></g>
<g><path style="opacity:0.008" fill="#008382" d="M 204.5,209.5 C 203.833,208.167 203.833,208.167 204.5,209.5 Z"/></g>
<g><path style="opacity:0.004" fill="#000000" d="M 562.5,208.5 C 563.833,209.167 563.833,209.167 562.5,208.5 Z"/></g>
<g><path style="opacity:0.004" fill="#000000" d="M 642.5,208.5 C 643.525,208.897 643.692,209.563 643,210.5C 642.536,209.906 642.369,209.239 642.5,208.5 Z"/></g>
<g><path style="opacity:0.004" fill="#000000" d="M 565.5,214.5 C 564.833,215.167 564.833,215.167 565.5,214.5 Z"/></g>
<g><path style="opacity:0.008" fill="#008382" d="M 191.5,217.5 C 192.833,218.167 192.833,218.167 191.5,217.5 Z"/></g>
<g><path style="opacity:0.004" fill="#000000" d="M 397.5,219.5 C 398.833,220.167 398.833,220.167 397.5,219.5 Z"/></g>
<g><path style="opacity:0.012" fill="#004d4c" d="M 396.5,222.5 C 397.833,223.167 397.833,223.167 396.5,222.5 Z"/></g>
<g><path style="opacity:0.016" fill="#1d821c" d="M 189.5,224.5 C 188.833,223.167 188.833,223.167 189.5,224.5 Z"/></g>
<g><path style="opacity:0.004" fill="#000000" d="M 644.5,223.5 C 645.833,224.167 645.833,224.167 644.5,223.5 Z"/></g>
<g><path style="opacity:0.004" fill="#000000" d="M 183.5,225.5 C 184.833,226.167 184.833,226.167 183.5,225.5 Z"/></g>
<g><path style="opacity:0.004" fill="#000000" d="M 887.5,231.5 C 888.833,232.167 888.833,232.167 887.5,231.5 Z"/></g>
<g><path style="opacity:0.004" fill="#132c2c" d="M 892.5,232.5 C 892.897,231.475 893.563,231.308 894.5,232C 893.906,232.464 893.239,232.631 892.5,232.5 Z"/></g>
<g><path style="opacity:0.008" fill="#008382" d="M 911.5,231.5 C 912.833,232.167 912.833,232.167 911.5,231.5 Z"/></g>
<g><path style="opacity:0.004" fill="#132c2c" d="M 919.5,232.5 C 919.897,231.475 920.563,231.308 921.5,232C 920.906,232.464 920.239,232.631 919.5,232.5 Z"/></g>
<g><path style="opacity:0.004" fill="#000000" d="M 927.5,231.5 C 928.833,232.167 928.833,232.167 927.5,231.5 Z"/></g>
<g><path style="opacity:0.004" fill="#000000" d="M 919.5,232.5 C 918.833,233.167 918.833,233.167 919.5,232.5 Z"/></g>
<g><path style="opacity:0.004" fill="#000000" d="M 879.5,234.5 C 880.833,235.167 880.833,235.167 879.5,234.5 Z"/></g>
<g><path style="opacity:0.008" fill="#008382" d="M 961.5,234.5 C 962.833,235.167 962.833,235.167 961.5,234.5 Z"/></g>
<g><path style="opacity:0.004" fill="#000000" d="M 646.5,237.5 C 647.525,237.897 647.692,238.563 647,239.5C 646.536,238.906 646.369,238.239 646.5,237.5 Z"/></g>
<g><path style="opacity:0.008" fill="#008382" d="M 968.5,239.5 C 969.833,240.167 969.833,240.167 968.5,239.5 Z"/></g>
<g><path style="opacity:0.008" fill="#155655" d="M 569.5,245.5 C 570.525,245.897 570.692,246.563 570,247.5C 569.536,246.906 569.369,246.239 569.5,245.5 Z"/></g>
<g><path style="opacity:0.008" fill="#008382" d="M 973.5,246.5 C 974.833,247.167 974.833,247.167 973.5,246.5 Z"/></g>
<g><path style="opacity:0.98" fill="#072819" d="M 400.5,209.5 C 396.02,221.135 391.52,232.802 387,244.5C 382.219,251.558 375.552,255.225 367,255.5C 345.494,249.696 323.994,247.696 302.5,249.5C 279.914,251.296 260.914,260.296 245.5,276.5C 245.062,276.565 244.728,276.399 244.5,276C 245.126,275.25 245.626,274.416 246,273.5C 265.042,255.702 287.708,246.702 314,246.5C 332.021,247.384 349.854,249.717 367.5,253.5C 376.306,253.183 382.806,249.183 387,241.5C 390.191,230.137 394.691,219.47 400.5,209.5 Z"/></g>
<g><path style="opacity:0.004" fill="#000000" d="M 569.5,248.5 C 570.525,248.897 570.692,249.563 570,250.5C 569.536,249.906 569.369,249.239 569.5,248.5 Z"/></g>
<g><path style="opacity:0.004" fill="#000000" d="M 302.5,249.5 C 303.833,250.167 303.833,250.167 302.5,249.5 Z"/></g>
<g><path style="opacity:0.004" fill="#000000" d="M 302.5,250.5 C 301.833,251.167 301.833,251.167 302.5,250.5 Z"/></g>
<g><path style="opacity:0.004" fill="#000000" d="M 335.5,250.5 C 336.833,251.167 336.833,251.167 335.5,250.5 Z"/></g>
<g><path style="opacity:0.004" fill="#132c2c" d="M 293.5,252.5 C 293.897,251.475 294.563,251.308 295.5,252C 294.906,252.464 294.239,252.631 293.5,252.5 Z"/></g>
<g><path style="opacity:0.004" fill="#000000" d="M 569.5,251.5 C 570.833,252.167 570.833,252.167 569.5,251.5 Z"/></g>
<g><path style="opacity:0.004" fill="#000000" d="M 288.5,252.5 C 289.833,253.167 289.833,253.167 288.5,252.5 Z"/></g>
<g><path style="opacity:0.004" fill="#000000" d="M 168.5,255.5 C 167.833,254.167 167.833,254.167 168.5,255.5 Z"/></g>
<g><path style="opacity:0.004" fill="#000000" d="M 356.5,255.5 C 356.897,254.475 357.563,254.308 358.5,255C 357.906,255.464 357.239,255.631 356.5,255.5 Z"/></g>
<g><path style="opacity:0.004" fill="#000000" d="M 866.5,256.5 C 867.833,257.167 867.833,257.167 866.5,256.5 Z"/></g>
<g><path style="opacity:0.004" fill="#000000" d="M 277.5,262.5 C 278.833,263.167 278.833,263.167 277.5,262.5 Z"/></g>
<g><path style="opacity:0.004" fill="#000000" d="M 570.5,264.5 C 571.833,265.167 571.833,265.167 570.5,264.5 Z"/></g>
<g><path style="opacity:0.004" fill="#000000" d="M 257.5,266.5 C 258.833,267.167 258.833,267.167 257.5,266.5 Z"/></g>
<g><path style="opacity:0.004" fill="#000000" d="M 867.5,267.5 C 868.833,268.167 868.833,268.167 867.5,267.5 Z"/></g>
<g><path style="opacity:0.004" fill="#000000" d="M 160.5,268.5 C 161.833,269.167 161.833,269.167 160.5,268.5 Z"/></g>
<g><path style="opacity:0.906" fill="#092717" d="M 243.5,278.5 C 241.833,281.167 240.167,283.833 238.5,286.5C 231.301,297.416 226.634,309.416 224.5,322.5C 223.378,320.712 223.211,318.712 224,316.5C 227.291,301.926 233.625,288.926 243,277.5C 243.399,277.728 243.565,278.062 243.5,278.5 Z"/></g>
<g><path style="opacity:0.51" fill="#09613b" d="M 973.5,252.5 C 974.201,255.563 974.868,258.73 975.5,262C 975.077,293.133 974.744,324.967 974.5,357.5C 973.502,322.671 973.168,287.671 973.5,252.5 Z"/></g>
<g><path style="opacity:0.004" fill="#000000" d="M 571.5,281.5 C 572.833,282.167 572.833,282.167 571.5,281.5 Z"/></g>
<g><path style="opacity:0.004" fill="#000000" d="M 867.5,283.5 C 868.833,284.167 868.833,284.167 867.5,283.5 Z"/></g>
<g><path style="opacity:0.004" fill="#000000" d="M 867.5,285.5 C 868.833,286.167 868.833,286.167 867.5,285.5 Z"/></g>
<g><path style="opacity:0.016" fill="#1d821c" d="M 238.5,286.5 C 239.833,287.167 239.833,287.167 238.5,286.5 Z"/></g>
<g><path style="opacity:0.008" fill="#155655" d="M 571.5,285.5 C 572.525,285.897 572.692,286.563 572,287.5C 571.536,286.906 571.369,286.239 571.5,285.5 Z"/></g>
<g><path style="opacity:0.004" fill="#000000" d="M 153.5,287.5 C 154.833,288.167 154.833,288.167 153.5,287.5 Z"/></g>
<g><path style="opacity:0.004" fill="#000000" d="M 867.5,294.5 C 868.833,295.167 868.833,295.167 867.5,294.5 Z"/></g>
<g><path style="opacity:0.004" fill="#000000" d="M 153.5,295.5 C 154.833,296.167 154.833,296.167 153.5,295.5 Z"/></g>
<g><path style="opacity:0.016" fill="#1d821c" d="M 645.5,296.5 C 646.833,297.167 646.833,297.167 645.5,296.5 Z"/></g>
<g><path style="opacity:0.004" fill="#000000" d="M 153.5,299.5 C 154.833,300.167 154.833,300.167 153.5,299.5 Z"/></g>
<g><path style="opacity:0.004" fill="#000000" d="M 867.5,299.5 C 868.833,300.167 868.833,300.167 867.5,299.5 Z"/></g>
<g><path style="opacity:0.004" fill="#000000" d="M 867.5,301.5 C 868.525,301.897 868.692,302.563 868,303.5C 867.536,302.906 867.369,302.239 867.5,301.5 Z"/></g>
<g><path style="opacity:0.004" fill="#000000" d="M 575.5,302.5 C 576.833,303.167 576.833,303.167 575.5,302.5 Z"/></g>
<g><path style="opacity:0.004" fill="#000000" d="M 584.5,306.5 C 583.833,307.167 583.833,307.167 584.5,306.5 Z"/></g>
<g><path style="opacity:0.008" fill="#008382" d="M 785.5,306.5 C 786.833,307.167 786.833,307.167 785.5,306.5 Z"/></g>
<g><path style="opacity:0.004" fill="#000000" d="M 790.5,306.5 C 791.833,307.167 791.833,307.167 790.5,306.5 Z"/></g>
<g><path style="opacity:0.004" fill="#000000" d="M 725.5,308.5 C 724.833,307.167 724.833,307.167 725.5,308.5 Z"/></g>
<g><path style="opacity:0.004" fill="#000000" d="M 720.5,308.5 C 721.833,309.167 721.833,309.167 720.5,308.5 Z"/></g>
<g><path style="opacity:0.967" fill="#0d1c19" d="M 763.5,308.5 C 770.737,307.815 778.07,307.482 785.5,307.5C 786.919,308.451 788.585,308.784 790.5,308.5C 781.598,309.815 772.598,309.815 763.5,308.5 Z"/></g>
<g><path style="opacity:0.004" fill="#000000" d="M 228.5,312.5 C 229.833,313.167 229.833,313.167 228.5,312.5 Z"/></g>
<g><path style="opacity:0.004" fill="#000000" d="M 716.5,313.5 C 715.833,312.167 715.833,312.167 716.5,313.5 Z"/></g>
<g><path style="opacity:0.004" fill="#000000" d="M 867.5,315.5 C 868.833,316.167 868.833,316.167 867.5,315.5 Z"/></g>
<g><path style="opacity:0.004" fill="#000000" d="M 151.5,316.5 C 152.833,317.167 152.833,317.167 151.5,316.5 Z"/></g>
<g><path style="opacity:0.004" fill="#000000" d="M 867.5,317.5 C 868.833,318.167 868.833,318.167 867.5,317.5 Z"/></g>
<g><path style="opacity:0.004" fill="#000000" d="M 151.5,319.5 C 152.833,320.167 152.833,320.167 151.5,319.5 Z"/></g>
<g><path style="opacity:0.004" fill="#000000" d="M 867.5,331.5 C 868.833,332.167 868.833,332.167 867.5,331.5 Z"/></g>
<g><path style="opacity:0.016" fill="#1d821c" d="M 152.5,332.5 C 153.833,333.167 153.833,333.167 152.5,332.5 Z"/></g>
<g><path style="opacity:0.004" fill="#000000" d="M 867.5,333.5 C 868.525,333.897 868.692,334.563 868,335.5C 867.536,334.906 867.369,334.239 867.5,333.5 Z"/></g>
<g><path style="opacity:0.004" fill="#000000" d="M 146.5,336.5 C 147.833,337.167 147.833,337.167 146.5,336.5 Z"/></g>
<g><path style="opacity:0.004" fill="#000000" d="M 144.5,337.5 C 145.833,338.167 145.833,338.167 144.5,337.5 Z"/></g>
<g><path style="opacity:0.004" fill="#000000" d="M 144.5,338.5 C 144.5,338.833 144.5,339.167 144.5,339.5C 143.83,339.019 143.83,338.685 144.5,338.5 Z"/></g>
<g><path style="opacity:0.004" fill="#000000" d="M 130.5,344.5 C 131.833,345.167 131.833,345.167 130.5,344.5 Z"/></g>
<g><path style="opacity:0.004" fill="#000000" d="M 131.5,348.5 C 130.833,347.167 130.833,347.167 131.5,348.5 Z"/></g>
<g><path style="opacity:0.004" fill="#000000" d="M 123.5,351.5 C 124.833,352.167 124.833,352.167 123.5,351.5 Z"/></g>
<g><path style="opacity:1" fill="#0b2316" d="M 961.5,235.5 C 963.619,237.4 965.953,239.066 968.5,240.5C 970.144,243.004 971.644,245.671 973,248.5C 973.49,249.793 973.657,251.127 973.5,252.5C 973.168,287.671 973.502,322.671 974.5,357.5C 974.099,421.27 973.099,485.77 971.5,551C 971.833,551.333 972.167,551.667 972.5,552C 971.711,570.437 971.044,588.937 970.5,607.5C 969.566,606.432 969.232,605.099 969.5,603.5C 971.854,485.845 972.687,368.178 972,250.5C 968.888,242.388 963.054,237.555 954.5,236C 932.5,235.333 910.5,235.333 888.5,236C 877.792,238.304 871.792,244.804 870.5,255.5C 870.672,254.508 870.338,253.842 869.5,253.5C 871.959,241.246 879.793,234.579 893,233.5C 912.39,234.8 932.057,234.8 952,233.5C 955.085,234.432 958.252,235.099 961.5,235.5 Z"/></g>
<g><path style="opacity:0.004" fill="#000000" d="M 867.5,355.5 C 868.833,356.167 868.833,356.167 867.5,355.5 Z"/></g>
<g><path style="opacity:0.004" fill="#000000" d="M 707.5,357.5 C 708.833,358.167 708.833,358.167 707.5,357.5 Z"/></g>
<g><path style="opacity:0.008" fill="#008382" d="M 112.5,363.5 C 111.833,362.167 111.833,362.167 112.5,363.5 Z"/></g>
<g><path style="opacity:0.004" fill="#000000" d="M 867.5,363.5 C 868.833,364.167 868.833,364.167 867.5,363.5 Z"/></g>
<g><path style="opacity:0.004" fill="#000000" d="M 867.5,364.5 C 867.5,364.833 867.5,365.167 867.5,365.5C 866.83,365.019 866.83,364.685 867.5,364.5 Z"/></g>
<g><path style="opacity:0.004" fill="#000000" d="M 867.5,365.5 C 868.525,365.897 868.692,366.563 868,367.5C 867.536,366.906 867.369,366.239 867.5,365.5 Z"/></g>
<g><path style="opacity:0.008" fill="#008382" d="M 867.5,379.5 C 868.833,380.167 868.833,380.167 867.5,379.5 Z"/></g>
<g><path style="opacity:0.004" fill="#000000" d="M 867.5,381.5 C 868.833,382.167 868.833,382.167 867.5,381.5 Z"/></g>
<g><path style="opacity:0.004" fill="#000000" d="M 79.5,393.5 C 80.8333,394.167 80.8333,394.167 79.5,393.5 Z"/></g>
<g><path style="opacity:0.004" fill="#000000" d="M 707.5,395.5 C 708.833,396.167 708.833,396.167 707.5,395.5 Z"/></g>
<g><path style="opacity:0.004" fill="#000000" d="M 575.5,400.5 C 574.833,399.167 574.833,399.167 575.5,400.5 Z"/></g>
<g><path style="opacity:0.004" fill="#000000" d="M 707.5,403.5 C 708.833,404.167 708.833,404.167 707.5,403.5 Z"/></g>
<g><path style="opacity:0.004" fill="#000000" d="M 707.5,405.5 C 708.833,406.167 708.833,406.167 707.5,405.5 Z"/></g>
<g><path style="opacity:0.004" fill="#000000" d="M 568.5,407.5 C 567.833,406.167 567.833,406.167 568.5,407.5 Z"/></g>
<g><path style="opacity:1" fill="#073d26" d="M 645.5,408.5 C 646.91,412.397 647.91,416.397 648.5,420.5C 647.833,420.5 647.5,420.833 647.5,421.5C 647.167,421.5 646.833,421.5 646.5,421.5C 646.5,420.167 646.5,418.833 646.5,417.5C 645.574,413.642 644.074,409.975 642,406.5C 632.913,396.468 621.58,392.135 608,393.5C 572.908,394.618 558.408,412.618 564.5,447.5C 563.833,522.833 563.167,598.167 562.5,673.5C 562.333,589.499 562.5,505.499 563,421.5C 564.012,416.482 565.845,411.815 568.5,407.5C 570.833,405.167 573.167,402.833 575.5,400.5C 590.433,391.996 606.266,388.996 623,391.5C 628.254,393.965 633.254,396.965 638,400.5C 638.333,400.167 638.667,399.833 639,399.5C 640.643,402.961 642.81,405.961 645.5,408.5 Z"/></g>
<g><path style="opacity:0.012" fill="#4a4b4a" d="M 646.5,408.5 C 645.833,407.167 645.833,407.167 646.5,408.5 Z"/></g>
<g><path style="opacity:0.008" fill="#008382" d="M 646.5,408.5 C 647.833,409.167 647.833,409.167 646.5,408.5 Z"/></g>
<g><path style="opacity:0.004" fill="#000000" d="M 563.5,412.5 C 564.833,413.167 564.833,413.167 563.5,412.5 Z"/></g>
<g><path style="opacity:0.004" fill="#000000" d="M 174.5,419.5 C 175.833,420.167 175.833,420.167 174.5,419.5 Z"/></g>
<g><path style="opacity:0.004" fill="#000000" d="M 560.5,422.5 C 561.525,422.897 561.692,423.563 561,424.5C 560.536,423.906 560.369,423.239 560.5,422.5 Z"/></g>
<g><path style="opacity:0.008" fill="#155655" d="M 559.5,429.5 C 559.897,428.475 560.563,428.308 561.5,429C 560.906,429.464 560.239,429.631 559.5,429.5 Z"/></g>
<g><path style="opacity:0.008" fill="#008382" d="M 560.5,435.5 C 561.525,435.897 561.692,436.563 561,437.5C 560.536,436.906 560.369,436.239 560.5,435.5 Z"/></g>
<g><path style="opacity:0.004" fill="#000000" d="M 974.5,435.5 C 975.833,436.167 975.833,436.167 974.5,435.5 Z"/></g>
<g><path style="opacity:0.004" fill="#000000" d="M 560.5,443.5 C 561.525,443.897 561.692,444.563 561,445.5C 560.536,444.906 560.369,444.239 560.5,443.5 Z"/></g>
<g><path style="opacity:0.008" fill="#008382" d="M 55.5,444.5 C 56.8333,445.167 56.8333,445.167 55.5,444.5 Z"/></g>
<g><path style="opacity:0.004" fill="#000000" d="M 148.5,446.5 C 149.833,447.167 149.833,447.167 148.5,446.5 Z"/></g>
<g><path style="opacity:0.008" fill="#154040" d="M 560.5,446.5 C 561.773,447.077 561.773,447.743 560.5,448.5C 559.537,448.03 559.537,447.363 560.5,446.5 Z"/></g>
<g><path style="opacity:0.008" fill="#007070" d="M 560.5,451.5 C 561.525,451.897 561.692,452.563 561,453.5C 560.536,452.906 560.369,452.239 560.5,451.5 Z"/></g>
<g><path style="opacity:0.012" fill="#004d4c" d="M 141.5,455.5 C 142.833,456.167 142.833,456.167 141.5,455.5 Z"/></g>
<g><path style="opacity:0.004" fill="#000000" d="M 140.5,456.5 C 140.833,456.5 141.167,456.5 141.5,456.5C 141.315,457.17 140.981,457.17 140.5,456.5 Z"/></g>
<g><path style="opacity:0.012" fill="#004d4c" d="M 139.5,458.5 C 140.833,459.167 140.833,459.167 139.5,458.5 Z"/></g>
<g><path style="opacity:0.004" fill="#000000" d="M 867.5,459.5 C 868.833,460.167 868.833,460.167 867.5,459.5 Z"/></g>
<g><path style="opacity:0.004" fill="#112322" d="M 560.5,459.5 C 561.573,460.251 561.74,461.251 561,462.5C 560.517,461.552 560.351,460.552 560.5,459.5 Z"/></g>
<g><path style="opacity:0.004" fill="#000000" d="M 50.5,463.5 C 51.8333,464.167 51.8333,464.167 50.5,463.5 Z"/></g>
<g><path style="opacity:0.004" fill="#000000" d="M 560.5,467.5 C 561.833,468.167 561.833,468.167 560.5,467.5 Z"/></g>
<g><path style="opacity:0.004" fill="#000000" d="M 867.5,467.5 C 868.833,468.167 868.833,468.167 867.5,467.5 Z"/></g>
<g><path style="opacity:0.004" fill="#000000" d="M 867.5,469.5 C 868.525,469.897 868.692,470.563 868,471.5C 867.536,470.906 867.369,470.239 867.5,469.5 Z"/></g>
<g><path style="opacity:0.004" fill="#000000" d="M 974.5,469.5 C 975.833,470.167 975.833,470.167 974.5,469.5 Z"/></g>
<g><path style="opacity:0.004" fill="#000000" d="M 560.5,470.5 C 561.833,471.167 561.833,471.167 560.5,470.5 Z"/></g>
<g><path style="opacity:0.948" fill="#0f2817" d="M 648.5,420.5 C 648.547,461.59 648.547,502.59 648.5,543.5C 647.501,503.003 647.168,462.337 647.5,421.5C 647.5,420.833 647.833,420.5 648.5,420.5 Z"/></g>
<g><path style="opacity:0.004" fill="#000000" d="M 865.5,474.5 C 866.833,475.167 866.833,475.167 865.5,474.5 Z"/></g>
<g><path style="opacity:0.012" fill="#004d4c" d="M 560.5,475.5 C 561.833,476.167 561.833,476.167 560.5,475.5 Z"/></g>
<g><path style="opacity:0.004" fill="#000000" d="M 867.5,475.5 C 868.833,476.167 868.833,476.167 867.5,475.5 Z"/></g>
<g><path style="opacity:0.008" fill="#155655" d="M 560.5,477.5 C 561.525,477.897 561.692,478.563 561,479.5C 560.536,478.906 560.369,478.239 560.5,477.5 Z"/></g>
<g><path style="opacity:0.004" fill="#000000" d="M 867.5,478.5 C 868.833,479.167 868.833,479.167 867.5,478.5 Z"/></g>
<g><path style="opacity:0.004" fill="#000000" d="M 974.5,481.5 C 975.833,482.167 975.833,482.167 974.5,481.5 Z"/></g>
<g><path style="opacity:0.008" fill="#155655" d="M 47.5,483.5 C 48.525,483.897 48.6917,484.563 48,485.5C 47.5357,484.906 47.369,484.239 47.5,483.5 Z"/></g>
<g><path style="opacity:0.004" fill="#132c2c" d="M 560.5,483.5 C 561.525,483.897 561.692,484.563 561,485.5C 560.536,484.906 560.369,484.239 560.5,483.5 Z"/></g>
<g><path style="opacity:0.992" fill="#008153" d="M 646.5,417.5 C 646.5,418.833 646.5,420.167 646.5,421.5C 646.167,541.001 646.5,660.334 647.5,779.5C 647.5,779.833 647.5,780.167 647.5,780.5C 646.167,720.337 645.5,659.837 645.5,599C 645.5,538.332 645.833,477.832 646.5,417.5 Z"/></g>
<g><path style="opacity:0.004" fill="#000000" d="M 47.5,486.5 C 48.8333,487.167 48.8333,487.167 47.5,486.5 Z"/></g>
<g><path style="opacity:0.012" fill="#004d4c" d="M 560.5,486.5 C 561.833,487.167 561.833,487.167 560.5,486.5 Z"/></g>
<g><path style="opacity:0.008" fill="#154848" d="M 47.5,488.5 C 48.6291,490.628 48.7958,492.961 48,495.5C 47.5034,493.19 47.3367,490.857 47.5,488.5 Z"/></g>
<g><path style="opacity:0.008" fill="#33706f" d="M 560.5,491.5 C 561.525,491.897 561.692,492.563 561,493.5C 560.536,492.906 560.369,492.239 560.5,491.5 Z"/></g>
<g><path style="opacity:0.004" fill="#000000" d="M 974.5,497.5 C 975.833,498.167 975.833,498.167 974.5,497.5 Z"/></g>
<g><path style="opacity:0.008" fill="#136060" d="M 560.5,498.5 C 561.573,499.251 561.74,500.251 561,501.5C 560.517,500.552 560.351,499.552 560.5,498.5 Z"/></g>
<g><path style="opacity:0.004" fill="#000000" d="M 867.5,499.5 C 868.833,500.167 868.833,500.167 867.5,499.5 Z"/></g>
<g><path style="opacity:0.004" fill="#000000" d="M 867.5,501.5 C 868.833,502.167 868.833,502.167 867.5,501.5 Z"/></g>
<g><path style="opacity:0.004" fill="#000000" d="M 560.5,506.5 C 561.598,507.601 561.765,508.934 561,510.5C 560.51,509.207 560.343,507.873 560.5,506.5 Z"/></g>
<g><path style="opacity:0.252" fill="#04744b" d="M 49.5,496.5 C 49.5,503.5 49.5,510.5 49.5,517.5C 49.1667,517.5 48.8333,517.5 48.5,517.5C 48.8122,510.578 48.4788,503.744 47.5,497C 48.0944,496.536 48.7611,496.369 49.5,496.5 Z"/></g>
<g><path style="opacity:0.004" fill="#000000" d="M 560.5,511.5 C 561.833,512.167 561.833,512.167 560.5,511.5 Z"/></g>
<g><path style="opacity:0.004" fill="#000000" d="M 560.5,515.5 C 561.833,516.167 561.833,516.167 560.5,515.5 Z"/></g>
<g><path style="opacity:0.004" fill="#000000" d="M 48.5,517.5 C 47.8333,518.167 47.8333,518.167 48.5,517.5 Z"/></g>
<g><path style="opacity:0.99" fill="#000600" d="M 869.5,253.5 C 870.338,253.842 870.672,254.508 870.5,255.5C 870.5,377.833 870.5,500.167 870.5,622.5C 869.518,619.038 869.185,615.371 869.5,611.5C 869.456,491.907 869.456,372.574 869.5,253.5 Z"/></g>
<g><path style="opacity:0.004" fill="#10201f" d="M 47.5,519.5 C 48.5983,520.601 48.765,521.934 48,523.5C 47.51,522.207 47.3433,520.873 47.5,519.5 Z"/></g>
<g><path style="opacity:0.004" fill="#000000" d="M 560.5,522.5 C 561.525,522.897 561.692,523.563 561,524.5C 560.536,523.906 560.369,523.239 560.5,522.5 Z"/></g>
<g><path style="opacity:0.004" fill="#000000" d="M 867.5,523.5 C 868.833,524.167 868.833,524.167 867.5,523.5 Z"/></g>
<g><path style="opacity:0.012" fill="#475644" d="M 47.5,524.5 C 48.5983,525.601 48.765,526.934 48,528.5C 47.51,527.207 47.3433,525.873 47.5,524.5 Z"/></g>
<g><path style="opacity:0.004" fill="#000000" d="M 560.5,527.5 C 561.833,528.167 561.833,528.167 560.5,527.5 Z"/></g>
<g><path style="opacity:0.004" fill="#000000" d="M 560.5,530.5 C 561.573,531.251 561.74,532.251 561,533.5C 560.517,532.552 560.351,531.552 560.5,530.5 Z"/></g>
<g><path style="opacity:0.008" fill="#008382" d="M 867.5,531.5 C 868.833,532.167 868.833,532.167 867.5,531.5 Z"/></g>
<g><path style="opacity:0.008" fill="#008382" d="M 867.5,533.5 C 868.833,534.167 868.833,534.167 867.5,533.5 Z"/></g>
<g><path style="opacity:0.004" fill="#000000" d="M 973.5,533.5 C 974.833,534.167 974.833,534.167 973.5,533.5 Z"/></g>
<g><path style="opacity:0.004" fill="#000000" d="M 560.5,534.5 C 561.833,535.167 561.833,535.167 560.5,534.5 Z"/></g>
<g><path style="opacity:0.968" fill="#091a10" d="M 793.5,309.5 C 801.075,311.24 805.908,315.907 808,323.5C 809.425,343.46 809.925,363.46 809.5,383.5C 808.5,496.665 808.167,609.999 808.5,723.5C 807.667,591.667 807.167,459.667 807,327.5C 805.381,318.546 800.214,312.713 791.5,310C 792.094,309.536 792.761,309.369 793.5,309.5 Z"/></g>
<g><path style="opacity:0.004" fill="#000000" d="M 560.5,539.5 C 561.833,540.167 561.833,540.167 560.5,539.5 Z"/></g>
<g><path style="opacity:0.004" fill="#000000" d="M 867.5,539.5 C 868.833,540.167 868.833,540.167 867.5,539.5 Z"/></g>
<g><path style="opacity:0.004" fill="#000000" d="M 132.5,541.5 C 133.525,541.897 133.692,542.563 133,543.5C 132.536,542.906 132.369,542.239 132.5,541.5 Z"/></g>
<g><path style="opacity:0.004" fill="#000000" d="M 867.5,541.5 C 868.833,542.167 868.833,542.167 867.5,541.5 Z"/></g>
<g><path style="opacity:0.004" fill="#000000" d="M 973.5,542.5 C 974.833,543.167 974.833,543.167 973.5,542.5 Z"/></g>
<g><path style="opacity:0.004" fill="#000000" d="M 50.5,548.5 C 51.8333,549.167 51.8333,549.167 50.5,548.5 Z"/></g>
<g><path style="opacity:0.008" fill="#008382" d="M 134.5,549.5 C 135.833,550.167 135.833,550.167 134.5,549.5 Z"/></g>
<g><path style="opacity:0.004" fill="#000000" d="M 47.5,552.5 C 48.8333,553.167 48.8333,553.167 47.5,552.5 Z"/></g>
<g><path style="opacity:0.004" fill="#000000" d="M 867.5,555.5 C 868.833,556.167 868.833,556.167 867.5,555.5 Z"/></g>
<g><path style="opacity:0.004" fill="#000000" d="M 52.5,557.5 C 53.8333,558.167 53.8333,558.167 52.5,557.5 Z"/></g>
<g><path style="opacity:1" fill="#092719" d="M 140.5,701.5 C 139.388,692.606 139.388,683.773 140.5,675C 139.646,673.978 138.646,673.145 137.5,672.5C 136.537,672.97 136.537,673.637 137.5,674.5C 136.883,674.611 136.383,674.944 136,675.5C 135.95,673.256 135.117,671.589 133.5,670.5C 112.987,656.075 95.32,638.742 80.5,618.5C 71.8182,604.137 64.4849,589.137 58.5,573.5C 54.2433,559.806 51.5767,545.806 50.5,531.5C 50.3379,529.473 50.5045,527.473 51,525.5C 57.0702,589.682 87.0702,639.016 141,673.5C 141.824,683.009 141.658,692.343 140.5,701.5 Z"/></g>
<g><path style="opacity:0.004" fill="#000000" d="M 560.5,567.5 C 561.833,568.167 561.833,568.167 560.5,567.5 Z"/></g>
<g><path style="opacity:0.008" fill="#154d4d" d="M 867.5,570.5 C 868.598,571.601 868.765,572.934 868,574.5C 867.51,573.207 867.343,571.873 867.5,570.5 Z"/></g>
<g><path style="opacity:0.004" fill="#000000" d="M 57.5,573.5 C 56.8333,572.167 56.8333,572.167 57.5,573.5 Z"/></g>
<g><path style="opacity:0.008" fill="#154040" d="M 57.5,573.5 C 57.8333,573.5 58.1667,573.5 58.5,573.5C 58.1667,577.5 57.8333,577.5 57.5,573.5 Z"/></g>
<g><path style="opacity:0.004" fill="#000000" d="M 147.5,575.5 C 148.833,576.167 148.833,576.167 147.5,575.5 Z"/></g>
<g><path style="opacity:0.004" fill="#000000" d="M 149.5,575.5 C 150.833,576.167 150.833,576.167 149.5,575.5 Z"/></g>
<g><path style="opacity:0.004" fill="#000000" d="M 55.5,576.5 C 56.8333,577.167 56.8333,577.167 55.5,576.5 Z"/></g>
<g><path style="opacity:0.012" fill="#004d4c" d="M 150.5,579.5 C 151.833,580.167 151.833,580.167 150.5,579.5 Z"/></g>
<g><path style="opacity:0.004" fill="#000000" d="M 867.5,579.5 C 868.833,580.167 868.833,580.167 867.5,579.5 Z"/></g>
<g><path style="opacity:0.004" fill="#000000" d="M 55.5,580.5 C 56.8333,581.167 56.8333,581.167 55.5,580.5 Z"/></g>
<g><path style="opacity:0.008" fill="#008382" d="M 59.5,580.5 C 60.8333,581.167 60.8333,581.167 59.5,580.5 Z"/></g>
<g><path style="opacity:0.008" fill="#008382" d="M 60.5,582.5 C 61.8333,583.167 61.8333,583.167 60.5,582.5 Z"/></g>
<g><path style="opacity:0.004" fill="#000000" d="M 158.5,583.5 C 159.833,584.167 159.833,584.167 158.5,583.5 Z"/></g>
<g><path style="opacity:0.004" fill="#000000" d="M 163.5,592.5 C 164.833,593.167 164.833,593.167 163.5,592.5 Z"/></g>
<g><path style="opacity:0.012" fill="#4a4b4a" d="M 65.5,594.5 C 66.8333,595.167 66.8333,595.167 65.5,594.5 Z"/></g>
<g><path style="opacity:0.004" fill="#000000" d="M 867.5,595.5 C 868.833,596.167 868.833,596.167 867.5,595.5 Z"/></g>
<g><path style="opacity:0.004" fill="#000000" d="M 66.5,596.5 C 67.8333,597.167 67.8333,597.167 66.5,596.5 Z"/></g>
<g><path style="opacity:0.651" fill="#08291a" d="M 224.5,329.5 C 224.334,334.844 224.501,340.177 225,345.5C 227.891,354.897 230.391,364.397 232.5,374C 231.714,383.247 227.381,390.247 219.5,395C 200.21,402.971 182.21,412.971 165.5,425C 156.884,432.61 149.384,441.11 143,450.5C 141.878,452.407 141.045,454.407 140.5,456.5C 139.662,456.842 139.328,457.508 139.5,458.5C 134.142,467.735 130.642,477.735 129,488.5C 124.745,516.133 128.745,542.467 141,567.5C 143.188,570.567 145.355,573.567 147.5,576.5C 148.026,578.23 149.026,579.564 150.5,580.5C 156.288,588.929 163.955,595.929 173.5,601.5C 182.685,608.014 192.685,613.014 203.5,616.5C 213.218,620.59 218.552,627.923 219.5,638.5C 214.291,663.779 215.958,688.446 224.5,712.5C 225.702,716.578 227.202,720.578 229,724.5C 231.639,729.618 234.805,734.285 238.5,738.5C 239.786,741.117 241.453,743.45 243.5,745.5C 244.167,746.833 245.167,747.833 246.5,748.5C 254.968,758.235 265.301,765.235 277.5,769.5C 283.669,773.002 290.335,775.335 297.5,776.5C 303.61,778.356 309.944,779.69 316.5,780.5C 279.557,779.213 251.057,762.879 231,731.5C 215.333,701.826 210.833,670.493 217.5,637.5C 217.279,631.102 214.612,625.935 209.5,622C 200.082,617.86 190.748,613.527 181.5,609C 144.143,587.066 125.476,554.233 125.5,510.5C 125.469,475.04 138.803,445.874 165.5,423C 182.242,410.957 200.242,400.957 219.5,393C 228.792,386.129 231.959,376.962 229,365.5C 223.298,352.363 221.298,338.696 223,324.5C 223.198,326.382 223.698,328.048 224.5,329.5 Z"/></g>
<g><path style="opacity:0.004" fill="#000000" d="M 560.5,598.5 C 561.833,599.167 561.833,599.167 560.5,598.5 Z"/></g>
<g><path style="opacity:0.012" fill="#004d4c" d="M 173.5,600.5 C 172.833,599.167 172.833,599.167 173.5,600.5 Z"/></g>
<g><path style="opacity:0.004" fill="#000000" d="M 173.5,600.5 C 174.833,601.167 174.833,601.167 173.5,600.5 Z"/></g>
<g><path style="opacity:0.004" fill="#000000" d="M 177.5,602.5 C 178.833,603.167 178.833,603.167 177.5,602.5 Z"/></g>
<g><path style="opacity:0.008" fill="#008382" d="M 72.5,607.5 C 73.8333,608.167 73.8333,608.167 72.5,607.5 Z"/></g>
<g><path style="opacity:0.004" fill="#000000" d="M 186.5,607.5 C 187.833,608.167 187.833,608.167 186.5,607.5 Z"/></g>
<g><path style="opacity:0.955" fill="#07170b" d="M 648.5,546.5 C 648.206,625.346 648.539,703.013 649.5,779.5C 655.549,778.927 661.549,778.26 667.5,777.5C 668.263,778.268 669.263,778.768 670.5,779C 662.881,780.205 655.214,780.705 647.5,780.5C 647.5,780.167 647.5,779.833 647.5,779.5C 647.167,701.665 647.501,623.998 648.5,546.5 Z"/></g>
<g><path style="opacity:0.004" fill="#000000" d="M 190.5,608.5 C 191.833,609.167 191.833,609.167 190.5,608.5 Z"/></g>
<g><path style="opacity:0.004" fill="#000000" d="M 71.5,609.5 C 72.8333,610.167 72.8333,610.167 71.5,609.5 Z"/></g>
<g><path style="opacity:0.004" fill="#000000" d="M 193.5,609.5 C 194.773,610.077 194.773,610.743 193.5,611.5C 192.537,611.03 192.537,610.363 193.5,609.5 Z"/></g>
<g><path style="opacity:0.004" fill="#000000" d="M 72.5,612.5 C 73.8333,613.167 73.8333,613.167 72.5,612.5 Z"/></g>
<g><path style="opacity:0.004" fill="#000000" d="M 971.5,613.5 C 972.833,614.167 972.833,614.167 971.5,613.5 Z"/></g>
<g><path style="opacity:0.004" fill="#000000" d="M 203.5,615.5 C 204.833,616.167 204.833,616.167 203.5,615.5 Z"/></g>
<g><path style="opacity:0.004" fill="#000000" d="M 80.5,618.5 C 79.8333,619.167 79.8333,619.167 80.5,618.5 Z"/></g>
<g><path style="opacity:0.004" fill="#000000" d="M 212.5,620.5 C 213.833,621.167 213.833,621.167 212.5,620.5 Z"/></g>
<g><path style="opacity:0.004" fill="#152c11" d="M 80.5,620.5 C 81.525,620.897 81.6917,621.563 81,622.5C 80.5357,621.906 80.369,621.239 80.5,620.5 Z"/></g>
<g><path style="opacity:0.986" fill="#00925f" d="M 711.5,431.5 C 712.317,433.969 712.817,436.635 713,439.5C 713.833,549.667 713.666,659.667 712.5,769.5C 712.802,656.827 712.469,544.16 711.5,431.5 Z"/></g>
<g><path style="opacity:0.004" fill="#000000" d="M 217.5,626.5 C 218.833,627.167 218.833,627.167 217.5,626.5 Z"/></g>
<g><path style="opacity:0.992" fill="#09160b" d="M 564.5,447.5 C 564.833,542.668 564.499,637.668 563.5,732.5C 563.24,712.837 562.906,693.17 562.5,673.5C 563.167,598.167 563.833,522.833 564.5,447.5 Z"/></g>
<g><path style="opacity:0.004" fill="#000000" d="M 708.5,638.5 C 709.833,639.167 709.833,639.167 708.5,638.5 Z"/></g>
<g><path style="opacity:0.004" fill="#000000" d="M 95.5,640.5 C 96.8333,641.167 96.8333,641.167 95.5,640.5 Z"/></g>
<g><path style="opacity:0.004" fill="#000000" d="M 103.5,648.5 C 104.833,649.167 104.833,649.167 103.5,648.5 Z"/></g>
<g><path style="opacity:1" fill="#0b452c" d="M 809.5,383.5 C 809.333,496.5 809.5,609.5 810,722.5C 818.554,717.776 826.054,711.776 832.5,704.5C 835.903,702.1 838.57,699.1 840.5,695.5C 849.856,685.476 856.689,673.81 861,660.5C 866.203,644.432 869.036,628.098 869.5,611.5C 869.185,615.371 869.518,619.038 870.5,622.5C 869.85,628.848 869.017,635.182 868,641.5C 860.767,678.016 841.267,705.683 809.5,724.5C 808.893,724.376 808.56,724.043 808.5,723.5C 808.167,609.999 808.5,496.665 809.5,383.5 Z"/></g>
<g><path style="opacity:0.004" fill="#000000" d="M 863.5,642.5 C 864.833,643.167 864.833,643.167 863.5,642.5 Z"/></g>
<g><path style="opacity:0.004" fill="#000000" d="M 864.5,636.5 C 865.833,637.167 865.833,637.167 864.5,636.5 Z"/></g>
<g><path style="opacity:0.008" fill="#008382" d="M 865.5,633.5 C 866.833,634.167 866.833,634.167 865.5,633.5 Z"/></g>
<g><path style="opacity:0.008" fill="#008382" d="M 865.5,631.5 C 866.833,632.167 866.833,632.167 865.5,631.5 Z"/></g>
<g><path style="opacity:0.004" fill="#000000" d="M 866.5,620.5 C 867.833,621.167 867.833,621.167 866.5,620.5 Z"/></g>
<g><path style="opacity:0.004" fill="#000000" d="M 966.5,654.5 C 967.833,655.167 967.833,655.167 966.5,654.5 Z"/></g>
<g><path style="opacity:0.008" fill="#008382" d="M 858.5,660.5 C 859.833,661.167 859.833,661.167 858.5,660.5 Z"/></g>
<g><path style="opacity:0.004" fill="#000000" d="M 125.5,666.5 C 126.833,667.167 126.833,667.167 125.5,666.5 Z"/></g>
<g><path style="opacity:0.004" fill="#000000" d="M 963.5,669.5 C 964.833,670.167 964.833,670.167 963.5,669.5 Z"/></g>
<g><path style="opacity:0.012" fill="#004d4c" d="M 133.5,670.5 C 132.833,671.167 132.833,671.167 133.5,670.5 Z"/></g>
<g><path style="opacity:0.008" fill="#008382" d="M 217.5,671.5 C 218.833,672.167 218.833,672.167 217.5,671.5 Z"/></g>
<g><path style="opacity:0.004" fill="#000000" d="M 560.5,671.5 C 561.833,672.167 561.833,672.167 560.5,671.5 Z"/></g>
<g><path style="opacity:0.004" fill="#132c2c" d="M 560.5,674.5 C 561.525,674.897 561.692,675.563 561,676.5C 560.536,675.906 560.369,675.239 560.5,674.5 Z"/></g>
<g><path style="opacity:0.004" fill="#144241" d="M 137.5,674.5 C 138.776,675.386 138.776,676.386 137.5,677.5C 136.913,676.767 136.913,675.767 137.5,674.5 Z"/></g>
<g><path style="opacity:0.004" fill="#000000" d="M 961.5,676.5 C 962.833,677.167 962.833,677.167 961.5,676.5 Z"/></g>
<g><path style="opacity:0.012" fill="#0e2828" d="M 137.5,678.5 C 138.573,679.251 138.74,680.251 138,681.5C 137.517,680.552 137.351,679.552 137.5,678.5 Z"/></g>
<g><path style="opacity:0.004" fill="#000000" d="M 137.5,682.5 C 138.525,682.897 138.692,683.563 138,684.5C 137.536,683.906 137.369,683.239 137.5,682.5 Z"/></g>
<g><path style="opacity:0.004" fill="#000000" d="M 137.5,685.5 C 138.833,686.167 138.833,686.167 137.5,685.5 Z"/></g>
<g><path style="opacity:0.004" fill="#000000" d="M 137.5,687.5 C 138.833,688.167 138.833,688.167 137.5,687.5 Z"/></g>
<g><path style="opacity:0.008" fill="#008382" d="M 219.5,687.5 C 220.833,688.167 220.833,688.167 219.5,687.5 Z"/></g>
<g><path style="opacity:0.004" fill="#000000" d="M 137.5,690.5 C 138.833,691.167 138.833,691.167 137.5,690.5 Z"/></g>
<g><path style="opacity:0.004" fill="#000000" d="M 840.5,695.5 C 839.833,694.167 839.833,694.167 840.5,695.5 Z"/></g>
<g><path style="opacity:0.004" fill="#000000" d="M 220.5,695.5 C 221.833,696.167 221.833,696.167 220.5,695.5 Z"/></g>
<g><path style="opacity:0.008" fill="#008382" d="M 222.5,702.5 C 223.833,703.167 223.833,703.167 222.5,702.5 Z"/></g>
<g><path style="opacity:0.004" fill="#000000" d="M 136.5,703.5 C 137.833,704.167 137.833,704.167 136.5,703.5 Z"/></g>
<g><path style="opacity:0.004" fill="#000000" d="M 832.5,704.5 C 831.833,703.167 831.833,703.167 832.5,704.5 Z"/></g>
<g><path style="opacity:0.008" fill="#008382" d="M 138.5,704.5 C 139.833,705.167 139.833,705.167 138.5,704.5 Z"/></g>
<g><path style="opacity:0.995" fill="#006841" d="M 646.5,421.5 C 646.833,421.5 647.167,421.5 647.5,421.5C 647.168,462.337 647.501,503.003 648.5,543.5C 649.116,544.202 649.116,545.202 648.5,546.5C 647.501,623.998 647.167,701.665 647.5,779.5C 646.5,660.334 646.167,541.001 646.5,421.5 Z"/></g>
<g><path style="opacity:0.008" fill="#155655" d="M 139.5,709.5 C 140.525,709.897 140.692,710.563 140,711.5C 139.536,710.906 139.369,710.239 139.5,709.5 Z"/></g>
<g><path style="opacity:0.008" fill="#008382" d="M 948.5,710.5 C 949.833,711.167 949.833,711.167 948.5,710.5 Z"/></g>
<g><path style="opacity:0.004" fill="#112322" d="M 224.5,712.5 C 225.077,711.227 225.743,711.227 226.5,712.5C 226.03,713.463 225.363,713.463 224.5,712.5 Z"/></g>
<g><path style="opacity:0.004" fill="#000000" d="M 819.5,713.5 C 820.833,714.167 820.833,714.167 819.5,713.5 Z"/></g>
<g><path style="opacity:0.004" fill="#000000" d="M 948.5,713.5 C 949.833,714.167 949.833,714.167 948.5,713.5 Z"/></g>
<g><path style="opacity:0.004" fill="#000000" d="M 815.5,714.5 C 816.833,715.167 816.833,715.167 815.5,714.5 Z"/></g>
<g><path style="opacity:0.004" fill="#000000" d="M 140.5,716.5 C 141.525,716.897 141.692,717.563 141,718.5C 140.536,717.906 140.369,717.239 140.5,716.5 Z"/></g>
<g><path style="opacity:0.004" fill="#000000" d="M 143.5,732.5 C 144.833,733.167 144.833,733.167 143.5,732.5 Z"/></g>
<g><path style="opacity:0.004" fill="#000000" d="M 238.5,737.5 C 239.833,738.167 239.833,738.167 238.5,737.5 Z"/></g>
<g><path style="opacity:0.004" fill="#000000" d="M 932.5,737.5 C 933.833,738.167 933.833,738.167 932.5,737.5 Z"/></g>
<g><path style="opacity:0.004" fill="#000000" d="M 145.5,738.5 C 146.833,739.167 146.833,739.167 145.5,738.5 Z"/></g>
<g><path style="opacity:0.004" fill="#000000" d="M 243.5,744.5 C 244.833,745.167 244.833,745.167 243.5,744.5 Z"/></g>
<g><path style="opacity:0.004" fill="#000000" d="M 246.5,747.5 C 247.833,748.167 247.833,748.167 246.5,747.5 Z"/></g>
<g><path style="opacity:0.004" fill="#000000" d="M 148.5,748.5 C 149.833,749.167 149.833,749.167 148.5,748.5 Z"/></g>
<g><path style="opacity:0.945" fill="#0a2618" d="M 969.5,603.5 C 969.232,605.099 969.566,606.432 970.5,607.5C 970.913,666.964 951.413,718.631 912,762.5C 905.352,768.982 898.852,775.648 892.5,782.5C 889.991,783.921 887.657,785.588 885.5,787.5C 893.434,779.059 901.934,770.392 911,761.5C 950.339,716.331 969.839,663.664 969.5,603.5 Z"/></g>
<g><path style="opacity:0.012" fill="#004d4c" d="M 253.5,752.5 C 254.833,753.167 254.833,753.167 253.5,752.5 Z"/></g>
<g><path style="opacity:0.008" fill="#008382" d="M 152.5,754.5 C 151.833,755.167 151.833,755.167 152.5,754.5 Z"/></g>
<g><path style="opacity:0.004" fill="#000000" d="M 152.5,760.5 C 152.897,759.475 153.563,759.308 154.5,760C 153.906,760.464 153.239,760.631 152.5,760.5 Z"/></g>
<g><path style="opacity:0.004" fill="#000000" d="M 152.5,760.5 C 151.833,761.167 151.833,761.167 152.5,760.5 Z"/></g>
<g><path style="opacity:0.004" fill="#000000" d="M 155.5,761.5 C 154.833,762.167 154.833,762.167 155.5,761.5 Z"/></g>
<g><path style="opacity:0.004" fill="#000000" d="M 151.5,766.5 C 152.833,767.167 152.833,767.167 151.5,766.5 Z"/></g>
<g><path style="opacity:0.004" fill="#000000" d="M 700.5,767.5 C 701.833,768.167 701.833,768.167 700.5,767.5 Z"/></g>
<g><path style="opacity:0.008" fill="#008382" d="M 277.5,768.5 C 278.833,769.167 278.833,769.167 277.5,768.5 Z"/></g>
<g><path style="opacity:0.004" fill="#152c11" d="M 705.5,769.5 C 704.761,769.631 704.094,769.464 703.5,769C 704.437,768.308 705.103,768.475 705.5,769.5 Z"/></g>
<g><path style="opacity:0.008" fill="#008382" d="M 695.5,770.5 C 696.833,771.167 696.833,771.167 695.5,770.5 Z"/></g>
<g><path style="opacity:0.004" fill="#000000" d="M 698.5,771.5 C 697.833,770.167 697.833,770.167 698.5,771.5 Z"/></g>
<g><path style="opacity:0.984" fill="#082e1c" d="M 755.5,307.5 C 756.263,308.268 757.263,308.768 758.5,309C 747.118,309.116 735.785,309.783 724.5,311C 717.595,313.986 713.428,319.153 712,326.5C 711.5,361.498 711.333,396.498 711.5,431.5C 712.469,544.16 712.802,656.827 712.5,769.5C 699.107,774.609 685.44,777.276 671.5,777.5C 680.833,776.451 689.833,774.451 698.5,771.5C 701.152,771.59 703.485,770.924 705.5,769.5C 707.144,769.714 708.644,769.38 710,768.5C 710.169,619.496 710.169,472.162 710,326.5C 711.126,321.582 713.292,317.248 716.5,313.5C 719.406,311.55 722.406,309.883 725.5,308.5C 735.591,307.865 745.591,307.532 755.5,307.5 Z"/></g>
<g><path style="opacity:0.694" fill="#092618" d="M 298.5,858.5 C 289.853,857.264 281.186,855.931 272.5,854.5C 271.432,853.566 270.099,853.232 268.5,853.5C 260.647,850.66 252.647,847.994 244.5,845.5C 238.539,842.519 232.539,839.519 226.5,836.5C 225.035,835.263 223.368,834.263 221.5,833.5C 217.537,830.846 213.537,828.18 209.5,825.5C 197.542,816.21 186.542,805.876 176.5,794.5C 175.974,792.77 174.974,791.436 173.5,790.5C 172.557,787.891 170.89,785.891 168.5,784.5C 164.416,776.663 160.083,768.997 155.5,761.5C 155.293,758.759 154.293,756.426 152.5,754.5C 151.444,750.832 150.278,747.165 149,743.5C 148.552,741.776 147.718,741.109 146.5,741.5C 146.931,740.707 147.265,739.873 147.5,739C 145.027,730.994 143.36,722.827 142.5,714.5C 142.351,713.448 142.517,712.448 143,711.5C 146.071,732.713 152.738,752.713 163,771.5C 194.998,822.44 241.164,850.94 301.5,857C 300.263,857.232 299.263,857.732 298.5,858.5 Z"/></g>
<g><path style="opacity:0.016" fill="#248243" d="M 297.5,776.5 C 297.897,775.475 298.563,775.308 299.5,776C 298.906,776.464 298.239,776.631 297.5,776.5 Z"/></g>
<g><path style="opacity:0.004" fill="#000000" d="M 560.5,775.5 C 561.833,776.167 561.833,776.167 560.5,775.5 Z"/></g>
<g><path style="opacity:0.008" fill="#155655" d="M 668.5,776.5 C 668.897,775.475 669.563,775.308 670.5,776C 669.906,776.464 669.239,776.631 668.5,776.5 Z"/></g>
<g><path style="opacity:0.004" fill="#132c2c" d="M 671.5,776.5 C 671.897,775.475 672.563,775.308 673.5,776C 672.906,776.464 672.239,776.631 671.5,776.5 Z"/></g>
<g><path style="opacity:0.004" fill="#000000" d="M 326.5,776.5 C 327.833,777.167 327.833,777.167 326.5,776.5 Z"/></g>
<g><path style="opacity:0.004" fill="#0d1d1d" d="M 658.5,777.5 C 658.897,776.475 659.563,776.308 660.5,777C 659.906,777.464 659.239,777.631 658.5,777.5 Z"/></g>
<g><path style="opacity:0.008" fill="#155655" d="M 661.5,777.5 C 661.897,776.475 662.563,776.308 663.5,777C 662.906,777.464 662.239,777.631 661.5,777.5 Z"/></g>
<g><path style="opacity:0.004" fill="#000000" d="M 365.5,777.5 C 366.833,778.167 366.833,778.167 365.5,777.5 Z"/></g>
<g><path style="opacity:0.004" fill="#000000" d="M 383.5,777.5 C 384.833,778.167 384.833,778.167 383.5,777.5 Z"/></g>
<g><path style="opacity:0.004" fill="#000000" d="M 352.5,779.5 C 352.897,778.475 353.563,778.308 354.5,779C 353.906,779.464 353.239,779.631 352.5,779.5 Z"/></g>
<g><path style="opacity:0.012" fill="#004d4c" d="M 892.5,782.5 C 893.833,783.167 893.833,783.167 892.5,782.5 Z"/></g>
<g><path style="opacity:0.004" fill="#0d1d1d" d="M 168.5,784.5 C 168.631,785.239 168.464,785.906 168,786.5C 167.308,785.563 167.475,784.897 168.5,784.5 Z"/></g>
<g><path style="opacity:0.004" fill="#000000" d="M 167.5,789.5 C 168.833,790.167 168.833,790.167 167.5,789.5 Z"/></g>
<g><path style="opacity:0.004" fill="#000000" d="M 884.5,789.5 C 885.833,790.167 885.833,790.167 884.5,789.5 Z"/></g>
<g><path style="opacity:0.02" fill="#176160" d="M 173.5,790.5 C 172.833,791.167 172.833,791.167 173.5,790.5 Z"/></g>
<g><path style="opacity:0.008" fill="#008382" d="M 176.5,794.5 C 175.833,795.167 175.833,795.167 176.5,794.5 Z"/></g>
<g><path style="opacity:0.012" fill="#004d4c" d="M 191.5,814.5 C 192.833,815.167 192.833,815.167 191.5,814.5 Z"/></g>
<g><path style="opacity:0.012" fill="#0d4646" d="M 209.5,825.5 C 209.649,826.552 209.483,827.552 209,828.5C 208.26,827.251 208.427,826.251 209.5,825.5 Z"/></g>
<g><path style="opacity:0.004" fill="#0d1d1d" d="M 820.5,831.5 C 820.897,830.475 821.563,830.308 822.5,831C 821.906,831.464 821.239,831.631 820.5,831.5 Z"/></g>
<g><path style="opacity:0.328" fill="#586c5e" d="M -0.5,655.5 C -0.166667,655.5 0.166667,655.5 0.5,655.5C 0.5,777.833 0.5,900.167 0.5,1022.5C 341.5,1022.5 682.5,1022.5 1023.5,1022.5C 1023.5,1022.83 1023.5,1023.17 1023.5,1023.5C 682.167,1023.5 340.833,1023.5 -0.5,1023.5C -0.5,900.833 -0.5,778.167 -0.5,655.5 Z"/></g>
<g><path style="opacity:0.004" fill="#000000" d="M 221.5,833.5 C 220.833,834.167 220.833,834.167 221.5,833.5 Z"/></g>
<g><path style="opacity:0.839" fill="#092518" d="M 883.5,789.5 C 849.159,816.843 810.826,837.177 768.5,850.5C 767.761,850.631 767.094,850.464 766.5,850C 808.469,836.186 846.802,815.853 881.5,789C 882.437,788.308 883.103,788.475 883.5,789.5 Z"/></g>
<g><path style="opacity:0.008" fill="#008382" d="M 814.5,833.5 C 815.833,834.167 815.833,834.167 814.5,833.5 Z"/></g>
<g><path style="opacity:0.004" fill="#152c11" d="M 226.5,836.5 C 226.103,837.525 225.437,837.692 224.5,837C 225.094,836.536 225.761,836.369 226.5,836.5 Z"/></g>
<g><path style="opacity:0.004" fill="#000000" d="M 227.5,838.5 C 228.833,839.167 228.833,839.167 227.5,838.5 Z"/></g>
<g><path style="opacity:0.012" fill="#005e5e" d="M 803.5,839.5 C 803.897,838.475 804.563,838.308 805.5,839C 804.906,839.464 804.239,839.631 803.5,839.5 Z"/></g>
<g><path style="opacity:0.804" fill="#0b2718" d="M 563.5,733.5 C 564.663,758.997 564.83,784.663 564,810.5C 562.202,844.275 545.369,866.441 513.5,877C 486.568,883.18 461.568,878.847 438.5,864C 418.352,845.88 405.852,823.38 401,796.5C 397.831,787.163 391.331,781.996 381.5,781C 372.661,781.099 363.994,780.932 355.5,780.5C 362.492,779.834 369.492,779.167 376.5,778.5C 388.515,778.367 397.015,783.701 402,794.5C 403.488,798.787 404.822,803.12 406,807.5C 410.298,826.751 420.464,844.251 436.5,860C 451.923,872.307 469.589,878.141 489.5,877.5C 504.28,878.216 517.947,874.882 530.5,867.5C 546.239,858.594 556.073,844.594 560,825.5C 561.777,814.879 562.944,804.212 563.5,793.5C 562.923,774.513 562.923,754.513 563.5,733.5 Z"/></g>
<g><path style="opacity:0.004" fill="#000000" d="M 420.5,838.5 C 421.833,839.167 421.833,839.167 420.5,838.5 Z"/></g>
<g><path style="opacity:0.004" fill="#000000" d="M 553.5,831.5 C 554.833,832.167 554.833,832.167 553.5,831.5 Z"/></g>
<g><path style="opacity:0.008" fill="#008382" d="M 410.5,817.5 C 411.833,818.167 411.833,818.167 410.5,817.5 Z"/></g>
<g><path style="opacity:0.012" fill="#144737" d="M 559.5,815.5 C 560.598,816.601 560.765,817.934 560,819.5C 559.51,818.207 559.343,816.873 559.5,815.5 Z"/></g>
<g><path style="opacity:0.004" fill="#000000" d="M 559.5,812.5 C 560.833,813.167 560.833,813.167 559.5,812.5 Z"/></g>
<g><path style="opacity:0.008" fill="#008382" d="M 560.5,807.5 C 561.833,808.167 561.833,808.167 560.5,807.5 Z"/></g>
<g><path style="opacity:0.004" fill="#000000" d="M 560.5,804.5 C 561.833,805.167 561.833,805.167 560.5,804.5 Z"/></g>
<g><path style="opacity:0.008" fill="#008382" d="M 405.5,801.5 C 406.833,802.167 406.833,802.167 405.5,801.5 Z"/></g>
<g><path style="opacity:0.004" fill="#000000" d="M 404.5,798.5 C 405.833,799.167 405.833,799.167 404.5,798.5 Z"/></g>
<g><path style="opacity:0.004" fill="#000000" d="M 244.5,845.5 C 243.833,846.167 243.833,846.167 244.5,845.5 Z"/></g>
<g><path style="opacity:0.004" fill="#000000" d="M 231.5,846.5 C 232.833,847.167 232.833,847.167 231.5,846.5 Z"/></g>
<g><path style="opacity:0.016" fill="#1d821c" d="M 245.5,846.5 C 246.833,847.167 246.833,847.167 245.5,846.5 Z"/></g>
<g><path style="opacity:0.008" fill="#008382" d="M 429.5,847.5 C 430.833,848.167 430.833,848.167 429.5,847.5 Z"/></g>
<g><path style="opacity:0.008" fill="#008382" d="M 268.5,853.5 C 267.833,854.167 267.833,854.167 268.5,853.5 Z"/></g>
<g><path style="opacity:0.745" fill="#092c1c" d="M 765.5,851.5 C 754.709,854.948 743.709,857.614 732.5,859.5C 731.761,859.631 731.094,859.464 730.5,859C 741.463,856.106 752.463,853.273 763.5,850.5C 764.416,850.543 765.083,850.876 765.5,851.5 Z"/></g>
<g><path style="opacity:0.004" fill="#000000" d="M 255.5,854.5 C 256.833,855.167 256.833,855.167 255.5,854.5 Z"/></g>
<g><path style="opacity:0.004" fill="#000000" d="M 272.5,854.5 C 271.833,855.167 271.833,855.167 272.5,854.5 Z"/></g>
<g><path style="opacity:0.004" fill="#000000" d="M 535.5,856.5 C 536.833,857.167 536.833,857.167 535.5,856.5 Z"/></g>
<g><path style="opacity:0.004" fill="#1a402b" d="M 287.5,859.5 C 288.251,858.427 289.251,858.26 290.5,859C 289.552,859.483 288.552,859.649 287.5,859.5 Z"/></g>
<g><path style="opacity:0.004" fill="#000000" d="M 742.5,859.5 C 742.897,858.475 743.563,858.308 744.5,859C 743.906,859.464 743.239,859.631 742.5,859.5 Z"/></g>
<g><path style="opacity:0.004" fill="#000000" d="M 288.5,860.5 C 289.833,861.167 289.833,861.167 288.5,860.5 Z"/></g>
<g><path style="opacity:0.008" fill="#008382" d="M 312.5,860.5 C 313.833,861.167 313.833,861.167 312.5,860.5 Z"/></g>
<g><path style="opacity:0.008" fill="#008382" d="M 320.5,860.5 C 321.833,861.167 321.833,861.167 320.5,860.5 Z"/></g>
<g><path style="opacity:0.004" fill="#000000" d="M 535.5,860.5 C 536.833,861.167 536.833,861.167 535.5,860.5 Z"/></g>
<g><path style="opacity:0.008" fill="#008382" d="M 730.5,862.5 C 730.897,861.475 731.563,861.308 732.5,862C 731.906,862.464 731.239,862.631 730.5,862.5 Z"/></g>
<g><path style="opacity:0.999" fill="#0d482d" d="M 729.5,860.5 C 727.374,861.048 725.374,861.715 723.5,862.5C 713.201,864.093 702.868,865.426 692.5,866.5C 691.127,866.657 689.793,866.49 688.5,866C 696.57,864.477 704.57,862.644 712.5,860.5C 718.297,860.568 723.963,860.568 729.5,860.5 Z"/></g>
<g><path style="opacity:0.012" fill="#235e5d" d="M 723.5,862.5 C 724.873,862.343 726.207,862.51 727.5,863C 725.934,863.765 724.601,863.598 723.5,862.5 Z"/></g>
<g><path style="opacity:0.004" fill="#000000" d="M 445.5,864.5 C 446.833,865.167 446.833,865.167 445.5,864.5 Z"/></g>
<g><path style="opacity:0.004" fill="#000000" d="M 530.5,867.5 C 529.833,866.167 529.833,866.167 530.5,867.5 Z"/></g>
<g><path style="opacity:0.004" fill="#000000" d="M 701.5,866.5 C 702.833,867.167 702.833,867.167 701.5,866.5 Z"/></g>
<g><path style="opacity:0.004" fill="#000000" d="M 703.5,866.5 C 704.833,867.167 704.833,867.167 703.5,866.5 Z"/></g>
<g><path style="opacity:0.004" fill="#000000" d="M 693.5,868.5 C 693.897,867.475 694.563,867.308 695.5,868C 694.906,868.464 694.239,868.631 693.5,868.5 Z"/></g>
<g><path style="opacity:0.012" fill="#004d4c" d="M 344.5,868.5 C 345.833,869.167 345.833,869.167 344.5,868.5 Z"/></g>
<g><path style="opacity:0.012" fill="#0d5252" d="M 687.5,869.5 C 688.601,868.402 689.934,868.235 691.5,869C 690.207,869.49 688.873,869.657 687.5,869.5 Z"/></g>
<g><path style="opacity:0.929" fill="#0d2717" d="M 687.5,867.5 C 672.013,869.588 656.68,870.921 641.5,871.5C 641.082,870.778 640.416,870.278 639.5,870C 654.184,869.032 668.85,867.866 683.5,866.5C 685.045,866.511 686.378,866.844 687.5,867.5 Z"/></g>
<g><path style="opacity:0.004" fill="#000000" d="M 679.5,869.5 C 680.833,870.167 680.833,870.167 679.5,869.5 Z"/></g>
<g><path style="opacity:0.004" fill="#000000" d="M 683.5,869.5 C 684.833,870.167 684.833,870.167 683.5,869.5 Z"/></g>
<g><path style="opacity:0.004" fill="#000000" d="M 345.5,870.5 C 346.525,870.897 346.692,871.563 346,872.5C 345.536,871.906 345.369,871.239 345.5,870.5 Z"/></g>
<g><path style="opacity:0.008" fill="#007070" d="M 669.5,871.5 C 669.897,870.475 670.563,870.308 671.5,871C 670.906,871.464 670.239,871.631 669.5,871.5 Z"/></g>
<g><path style="opacity:0.004" fill="#000000" d="M 672.5,870.5 C 673.833,871.167 673.833,871.167 672.5,870.5 Z"/></g>
<g><path style="opacity:0.004" fill="#000000" d="M 343.5,872.5 C 344.833,873.167 344.833,873.167 343.5,872.5 Z"/></g>
<g><path style="opacity:0.875" fill="#0a2819" d="M 303.5,858.5 C 316.994,857.339 330.66,857.173 344.5,858C 355.403,893.797 377.403,920.464 410.5,938C 465.379,962.211 520.379,962.544 575.5,939C 605.654,924.365 626.987,902.199 639.5,872.5C 636.975,880.547 633.641,888.214 629.5,895.5C 621.573,906.096 612.573,915.763 602.5,924.5C 595.828,928.841 589.162,933.174 582.5,937.5C 557.532,949.991 531.198,956.991 503.5,958.5C 471.463,959.162 440.797,953.162 411.5,940.5C 390.136,929.472 372.469,914.139 358.5,894.5C 357.921,891.669 356.588,889.336 354.5,887.5C 350.053,878.496 346.386,869.162 343.5,859.5C 329.716,859.799 316.383,859.466 303.5,858.5 Z"/></g>
<g><path style="opacity:0.004" fill="#000000" d="M 495.5,875.5 C 496.833,876.167 496.833,876.167 495.5,875.5 Z"/></g>
<g><path style="opacity:0.008" fill="#155655" d="M 504.5,875.5 C 504.897,874.475 505.563,874.308 506.5,875C 505.906,875.464 505.239,875.631 504.5,875.5 Z"/></g>
<g><path style="opacity:0.004" fill="#000000" d="M 473.5,874.5 C 474.833,875.167 474.833,875.167 473.5,874.5 Z"/></g>
<g><path style="opacity:0.004" fill="#000000" d="M 471.5,874.5 C 472.833,875.167 472.833,875.167 471.5,874.5 Z"/></g>
<g><path style="opacity:0.004" fill="#000000" d="M 461.5,871.5 C 462.833,872.167 462.833,872.167 461.5,871.5 Z"/></g>
<g><path style="opacity:0.004" fill="#000000" d="M 354.5,887.5 C 354.158,888.338 353.492,888.672 352.5,888.5C 352.409,886.302 353.075,885.969 354.5,887.5 Z"/></g>
<g><path style="opacity:0.004" fill="#000000" d="M 352.5,888.5 C 351.833,889.167 351.833,889.167 352.5,888.5 Z"/></g>
<g><path style="opacity:0.004" fill="#000000" d="M 355.5,891.5 C 356.833,892.167 356.833,892.167 355.5,891.5 Z"/></g>
<g><path style="opacity:0.008" fill="#008382" d="M 358.5,894.5 C 357.833,895.167 357.833,895.167 358.5,894.5 Z"/></g>
<g><path style="opacity:0.008" fill="#008382" d="M 629.5,895.5 C 630.833,896.167 630.833,896.167 629.5,895.5 Z"/></g>
<g><path style="opacity:0.004" fill="#000000" d="M 626.5,900.5 C 627.833,901.167 627.833,901.167 626.5,900.5 Z"/></g>
<g><path style="opacity:0.008" fill="#008382" d="M 602.5,924.5 C 603.833,925.167 603.833,925.167 602.5,924.5 Z"/></g>
<g><path style="opacity:0.012" fill="#4a4b4a" d="M 588.5,934.5 C 589.833,935.167 589.833,935.167 588.5,934.5 Z"/></g>
<g><path style="opacity:0.012" fill="#004d4c" d="M 582.5,937.5 C 583.833,938.167 583.833,938.167 582.5,937.5 Z"/></g>
<g><path style="opacity:0.004" fill="#132c2c" d="M 411.5,940.5 C 411.103,941.525 410.437,941.692 409.5,941C 410.094,940.536 410.761,940.369 411.5,940.5 Z"/></g>
<g><path style="opacity:0.004" fill="#000000" d="M 575.5,941.5 C 576.833,942.167 576.833,942.167 575.5,941.5 Z"/></g>
<g><path style="opacity:0.012" fill="#004d4c" d="M 413.5,942.5 C 414.833,943.167 414.833,943.167 413.5,942.5 Z"/></g>
<g><path style="opacity:0.008" fill="#008382" d="M 566.5,945.5 C 567.833,946.167 567.833,946.167 566.5,945.5 Z"/></g>
<g><path style="opacity:0.004" fill="#000000" d="M 542.5,953.5 C 543.833,954.167 543.833,954.167 542.5,953.5 Z"/></g>
<g><path style="opacity:0.004" fill="#000000" d="M 448.5,955.5 C 448.897,954.475 449.563,954.308 450.5,955C 449.906,955.464 449.239,955.631 448.5,955.5 Z"/></g>
<g><path style="opacity:0.004" fill="#000000" d="M 528.5,956.5 C 529.833,957.167 529.833,957.167 528.5,956.5 Z"/></g>
<g><path style="opacity:0.008" fill="#008382" d="M 466.5,957.5 C 467.833,958.167 467.833,958.167 466.5,957.5 Z"/></g>
<g><path style="opacity:0.004" fill="#000000" d="M 533.5,957.5 C 534.833,958.167 534.833,958.167 533.5,957.5 Z"/></g>
<g><path style="opacity:0.008" fill="#008382" d="M 477.5,958.5 C 478.833,959.167 478.833,959.167 477.5,958.5 Z"/></g>
<g><path style="opacity:0.004" fill="#000000" d="M 479.5,959.5 C 479.897,958.475 480.563,958.308 481.5,959C 480.906,959.464 480.239,959.631 479.5,959.5 Z"/></g>
<g><path style="opacity:0.004" fill="#000000" d="M 485.5,958.5 C 486.833,959.167 486.833,959.167 485.5,958.5 Z"/></g>
<g><path style="opacity:0.016" fill="#1c5518" d="M 503.5,958.5 C 504.239,958.369 504.906,958.536 505.5,959C 504.563,959.692 503.897,959.525 503.5,958.5 Z"/></g>
<g><path style="opacity:0.004" fill="#000000" d="M 507.5,959.5 C 507.897,958.475 508.563,958.308 509.5,959C 508.906,959.464 508.239,959.631 507.5,959.5 Z"/></g>
<g><path style="opacity:0.004" fill="#000000" d="M 512.5,958.5 C 513.833,959.167 513.833,959.167 512.5,958.5 Z"/></g>
<g><path style="opacity:0.004" fill="#000000" d="M 524.5,958.5 C 525.833,959.167 525.833,959.167 524.5,958.5 Z"/></g>
</svg>
